<mxfile host="app.diagrams.net" modified="2024-01-25T23:26:31.522Z" agent="Mozilla/5.0 (Linux; Android 10; K) AppleWebKit/537.36 (KHTML, like Gecko) Chrome/120.0.0.0 Mobile Safari/537.36" version="23.0.2" etag="RrU0BdpJejX7SkM-RjXo" type="github">
  <diagram name="Sayfa -1" id="k0LyW6wRnWNxBRpKxmGk">
    <mxGraphModel>
      <root>
        <mxCell id="0" />
        <mxCell id="1" parent="0" />
      </root>
    </mxGraphModel>
  </diagram>
</mxfile>
